<svg width="10" height="10" viewBox="0 0 10 10" fill="none" xmlns="http://www.w3.org/2000/svg">
<path d="M0.698566 9.26981C0.313298 8.8665 0.321905 8.22105 0.71779 7.82815L7.88766 0.712422C8.28355 0.319526 8.9168 0.32797 9.30207 0.731282C9.68733 1.13459 9.67873 1.78005 9.28284 2.17294L2.11297 9.28867C1.71708 9.68157 1.08383 9.67312 0.698566 9.26981Z" fill="#2C2C2C"/>
<path d="M0.697919 0.730261C1.08319 0.326949 1.71644 0.318505 2.11232 0.7114L9.28219 7.82713C9.67808 8.22002 9.68669 8.86548 9.30142 9.26879C8.91615 9.6721 8.2829 9.68055 7.88702 9.28765L0.717143 2.17192C0.321257 1.77903 0.312651 1.13357 0.697919 0.730261Z" fill="#2C2C2C"/>
<path d="M0.697919 0.730261C1.08319 0.326949 1.71644 0.318505 2.11232 0.7114L9.28219 7.82713C9.67808 8.22002 9.68669 8.86548 9.30142 9.26879C8.91615 9.6721 8.2829 9.68055 7.88702 9.28765L0.717143 2.17192C0.321257 1.77903 0.312651 1.13357 0.697919 0.730261Z" fill="#2C2C2C"/>
</svg>
