<?xml version="1.0" ?><svg id="Capa_1" style="enable-background:new 0 0 512 512;" version="1.1" viewBox="0 0 512 512" xml:space="preserve" xmlns="http://www.w3.org/2000/svg" xmlns:xlink="http://www.w3.org/1999/xlink"><style type="text/css">
	.st0{fill:#231F20;}
</style><g><path class="st0" d="M120.7,361.7c4.2,0,8.3-2.4,10.1-6.5c2.5-5.6,0-12.2-5.6-14.7c-37.9-17-71.2-40.9-99.1-70.9   C52.5,242,133.7,169.4,256,169.4c15.6,0,33.9,1.7,51.8,4.9c6,1.1,11.8-2.9,12.9-9c1.1-6-2.9-11.8-9-12.9   c-24.5-4.4-43.8-5.3-55.7-5.3c-141.7,0-229.7,88-253.3,115c-0.1,0.1-0.1,0.2-0.2,0.3c-0.3,0.3-0.5,0.6-0.7,1   c-0.2,0.3-0.4,0.6-0.5,0.9c-0.2,0.3-0.3,0.7-0.5,1c-0.1,0.3-0.3,0.6-0.4,1c-0.1,0.3-0.2,0.7-0.2,1.1c-0.1,0.3-0.1,0.7-0.2,1   c0,0.4,0,0.7,0,1.1s0,0.7,0,1.1c0,0.3,0.1,0.7,0.2,1c0.1,0.4,0.1,0.7,0.2,1.1c0.1,0.3,0.2,0.6,0.4,1c0.1,0.4,0.3,0.7,0.5,1   c0.2,0.3,0.3,0.6,0.5,0.9c0.2,0.3,0.4,0.7,0.7,1c0.1,0.1,0.1,0.2,0.2,0.3c31.4,35.9,69.6,64.1,113.4,83.9   C117.6,361.4,119.2,361.7,120.7,361.7z"/><path class="st0" d="M510.7,274.7c0.2-0.3,0.3-0.7,0.5-1c0.1-0.3,0.3-0.6,0.4-1c0.1-0.3,0.2-0.7,0.2-1.1c0.1-0.3,0.1-0.7,0.2-1   c0-0.4,0-0.7,0-1.1s0-0.7,0-1.1c0-0.4-0.1-0.7-0.2-1c-0.1-0.4-0.1-0.7-0.2-1.1c-0.1-0.3-0.2-0.6-0.4-1c-0.1-0.4-0.3-0.7-0.5-1   c-0.2-0.3-0.3-0.6-0.5-0.8c-0.2-0.3-0.4-0.7-0.7-1c-0.1-0.1-0.1-0.2-0.2-0.3c-31.4-35.9-69.6-64.1-113.4-83.9   c-5.6-2.5-12.2,0-14.7,5.6c-2.5,5.6,0,12.2,5.6,14.7c37.9,17,71.2,40.9,99.1,70.9C459.5,297.1,378.3,369.7,256,369.7   c-15.6,0-33.9-1.7-51.8-4.9c-6-1-11.8,2.9-12.9,9c-1.1,6,2.9,11.8,9,12.9c24.5,4.4,43.8,5.3,55.7,5.3c141.7,0,229.7-88,253.3-115   c0.1-0.1,0.1-0.2,0.2-0.3c0.3-0.3,0.5-0.6,0.7-1C510.4,275.3,510.6,275,510.7,274.7z"/><path class="st0" d="M311.3,305.2c1.4,0.6,2.9,0.9,4.3,0.9c4.3,0,8.4-2.5,10.2-6.7c4-9.4,6.1-19.5,6.1-29.8   c0-7.8-1.2-15.6-3.6-23.1c-1.9-5.8-8.1-9.1-13.9-7.2c-5.8,1.9-9.1,8.1-7.2,13.9c1.7,5.3,2.5,10.8,2.5,16.3c0,7.3-1.4,14.4-4.3,21.1   C303,296.3,305.7,302.8,311.3,305.2z"/><path class="st0" d="M256,215.8c3.3,0,6.7,0.3,10,0.9c5.9,1.1,11.8-2.8,12.9-8.9c1.1-6-2.8-11.8-8.9-12.9c-4.6-0.9-9.3-1.3-14-1.3   c-41.9,0-75.9,34.1-75.9,75.9c0,4.3,0.4,8.7,1.1,12.9c0.9,5.4,5.6,9.2,10.9,9.2c0.6,0,1.3-0.1,1.9-0.2c6-1,10.1-6.8,9.1-12.8   c-0.5-3-0.8-6.1-0.8-9.1C202.3,239.9,226.4,215.8,256,215.8z"/><path class="st0" d="M277.9,318.6c-11.2,5-24.1,6-36,2.8c-5.9-1.6-12,1.9-13.6,7.8c-1.6,5.9,1.9,12,7.8,13.6   c6.4,1.7,13.1,2.6,19.8,2.6c10.8,0,21.2-2.2,31-6.6c5.6-2.5,8.1-9.1,5.6-14.7C290.1,318.6,283.5,316.1,277.9,318.6z"/><path class="st0" d="M435.7,89.8c-4.3-4.3-11.4-4.3-15.7,0L76.3,433.5c-4.3,4.3-4.3,11.4,0,15.7c2.2,2.2,5,3.2,7.8,3.2   c2.8,0,5.7-1.1,7.8-3.2l343.7-343.7C440,101.2,440,94.2,435.7,89.8z"/></g></svg>