<svg width="71" height="67" viewBox="0 0 71 67" fill="none" xmlns="http://www.w3.org/2000/svg">
<g clip-path="url(#clip0_899_6630)">
<path d="M58.6031 23.3308C58.6021 22.9963 58.5941 22.6619 58.579 22.3278V3.364L53.2839 8.60675C48.9499 3.35467 42.3571 0 34.9723 0C27.2874 0 20.46 3.63173 16.1445 9.25643L24.824 17.9401C25.6738 16.3856 26.8776 15.0484 28.3399 14.0343C29.8553 12.8637 32.0022 11.9062 34.9723 11.9062C35.3312 11.9062 35.6082 11.948 35.8115 12.026C39.4916 12.3137 42.6813 14.3243 44.5592 17.2426L38.4152 23.3253C46.1972 23.2951 54.9882 23.2776 58.6025 23.3295" fill="#1C3AA9"/>
<path d="M34.8343 0.000976562C34.4965 0.0019256 34.1587 0.00989047 33.8212 0.0248659H14.6673L19.9626 5.26762C14.6578 9.55836 11.2695 16.0859 11.2695 23.3972C11.2695 31.0061 14.9377 37.7656 20.6188 42.0385L29.3895 33.4452C27.8194 32.6038 26.4688 31.4119 25.4446 29.964C24.2623 28.4639 23.2952 26.338 23.2952 23.3974C23.2952 23.0424 23.3373 22.7681 23.4161 22.5665C23.7067 18.9233 25.7374 15.7652 28.6851 13.9059L34.8288 19.9887C34.7983 12.2837 34.7802 3.57998 34.8329 0.00152574" fill="#4285F4"/>
<path d="M11.2705 23.3965C11.2716 23.7326 11.2794 24.0668 11.2946 24.3996V43.3633L16.59 38.1206C20.9237 43.3726 27.5167 46.7273 34.9013 46.7273C42.5865 46.7273 49.4139 43.0956 53.7296 37.4709L45.0501 28.7872C44.2002 30.3418 42.9964 31.679 41.534 32.693C40.0189 33.8636 37.8717 34.8211 34.9016 34.8211C34.543 34.8211 34.2659 34.7793 34.0623 34.7011C30.3825 34.4136 27.1928 32.4028 25.3149 29.4847L31.4586 23.4017C23.6764 23.4319 14.8854 23.4498 11.2711 23.3979" fill="#ABABAB"/>
<path d="M15.2575 55.7879C14.682 55.7879 14.1659 55.8958 13.7094 56.1119C13.2563 56.3205 12.8587 56.631 12.5481 57.0186C12.2356 57.4115 11.9948 57.8882 11.8262 58.4481C11.6626 59.0033 11.5805 59.6247 11.5805 60.3126V62.2951C11.5805 62.9876 11.6626 63.6115 11.8262 64.1667C11.9948 64.7219 12.2331 65.1959 12.5409 65.5891C12.8485 65.9818 13.2204 66.2841 13.6572 66.4952C14.0938 66.7067 14.5852 66.8124 15.131 66.8124C15.6918 66.8124 16.183 66.7311 16.6048 66.5691C17.0317 66.4071 17.3889 66.1737 17.6765 65.8689C17.9644 65.5594 18.1852 65.1863 18.3391 64.7488C18.498 64.3117 18.592 63.8152 18.622 63.2603H17.245C17.2103 63.6876 17.1507 64.0539 17.0663 64.3584C16.982 64.658 16.8578 64.9062 16.6942 65.1025C16.5352 65.2942 16.3269 65.4367 16.0687 65.5301C15.8158 65.6185 15.503 65.6627 15.131 65.6627C14.7342 65.6627 14.3966 65.5767 14.1187 65.4046C13.8408 65.2277 13.6151 64.9872 13.4415 64.6824C13.2728 64.3779 13.1486 64.0217 13.0693 63.614C12.9949 63.2062 12.9575 62.7666 12.9575 62.2948V60.2977C12.9575 59.7917 13.0022 59.3323 13.0915 58.9196C13.1858 58.5071 13.3272 58.1557 13.5158 57.866C13.7044 57.576 13.9426 57.3525 14.2305 57.1951C14.5181 57.0331 14.8606 56.9521 15.2575 56.9521C15.59 56.9521 15.8754 57.0013 16.1134 57.0996C16.3488 57.1906 16.5547 57.3434 16.7089 57.5417C16.8678 57.738 16.9892 57.9887 17.0736 58.2932C17.1581 58.598 17.215 58.9613 17.245 59.3839H18.622C18.597 58.8042 18.5055 58.291 18.3466 57.8437C18.1876 57.3967 17.9669 57.0208 17.684 56.7163C17.4011 56.4115 17.0564 56.1808 16.6495 56.0235C16.2474 55.8664 15.7836 55.7879 15.2575 55.7879ZM48.8716 55.7879C48.2958 55.7879 47.7797 55.8958 47.3232 56.1119C46.8701 56.3205 46.4724 56.631 46.1619 57.0186C45.8494 57.4115 45.6089 57.8882 45.44 58.4481C45.2764 59.0033 45.1946 59.6247 45.1946 60.3126V62.2951C45.1946 62.9876 45.2764 63.6115 45.44 64.1667C45.6086 64.7219 45.8469 65.1959 46.1547 65.5891C46.4623 65.9818 46.8342 66.2841 47.271 66.4952C47.7078 66.7067 48.199 66.8124 48.7448 66.8124C49.3056 66.8124 49.7968 66.7311 50.2186 66.5691C50.6455 66.4071 51.0027 66.1737 51.2906 65.8689C51.5782 65.5594 51.7989 65.1863 51.9529 64.7488C52.1118 64.3117 52.2061 63.8152 52.2358 63.2603H50.8587C50.8241 63.6876 50.7644 64.0539 50.6801 64.3584C50.5958 64.658 50.4718 64.9062 50.3079 65.1025C50.1493 65.2942 49.9407 65.4367 49.6828 65.5301C49.4296 65.6185 49.117 65.6627 48.7448 65.6627C48.3479 65.6627 48.0104 65.5767 47.7325 65.4046C47.4546 65.2277 47.2289 64.9872 47.0553 64.6824C46.8866 64.3779 46.7627 64.0217 46.6831 63.614C46.6087 63.2062 46.5716 62.7666 46.5716 62.2948V60.2977C46.5716 59.7917 46.6159 59.3323 46.7055 58.9196C46.7998 58.5071 46.9413 58.1557 47.1299 57.866C47.3184 57.576 47.5564 57.3525 47.8443 57.1951C48.1322 57.0331 48.4744 56.9521 48.8713 56.9521C49.2041 56.9521 49.4892 57.0013 49.7275 57.0996C49.9654 57.193 50.164 57.3401 50.3229 57.5417C50.4816 57.738 50.603 57.9887 50.6876 58.2932C50.7719 58.598 50.8291 58.9613 50.8587 59.3839H52.2358C52.2108 58.8042 52.1193 58.291 51.9604 57.8437C51.8014 57.3967 51.5807 57.0208 51.2978 56.7163C51.0149 56.4115 50.6701 56.1808 50.2633 56.0235C49.8611 55.8664 49.3974 55.7876 48.8713 55.7876L48.8716 55.7879ZM23.1033 55.9353L19.6124 66.6649H21.0116L21.8527 63.8644H25.5148L26.3707 66.6649H27.7702L24.2717 55.9353H23.1033ZM29.2437 55.9353V66.6649H30.6057V62.4643H32.6972C33.2183 62.4643 33.6798 62.3929 34.0817 62.2506C34.4838 62.1032 34.8211 61.892 35.094 61.6169C35.3719 61.3417 35.5802 61.0026 35.7191 60.5998C35.8633 60.192 35.9352 59.7304 35.9352 59.2145C35.9352 58.7378 35.863 58.3006 35.7191 57.9028C35.5804 57.4999 35.3744 57.1534 35.1015 56.8637C34.8286 56.5688 34.4885 56.3403 34.0817 56.1783C33.6795 56.0163 33.2183 55.935 32.6972 55.935H29.2437V55.9353ZM36.9771 55.9353V57.0996H39.8205V66.6649H41.1822V57.0996H44.0333V55.9353H36.9771ZM54.0743 55.9353V66.6649H55.436V61.7053H59.7981V66.6649H61.1676V55.9353H59.7981V60.5484H55.4363V55.9353H54.0743ZM66.3329 55.9353L62.8422 66.6649H64.2417L65.0826 63.8644H68.7446L69.6008 66.6649H71L67.5016 55.9353H66.3331H66.3329ZM30.6054 57.0996H32.6972C33.0297 57.0996 33.3123 57.1584 33.5458 57.2764C33.7838 57.3945 33.9774 57.5516 34.1263 57.7482C34.2836 57.9518 34.3974 58.1848 34.4611 58.4333C34.5357 58.6886 34.5728 58.9542 34.5728 59.2293C34.5728 59.5341 34.5357 59.8139 34.4611 60.0696C34.3973 60.309 34.2832 60.5324 34.1263 60.7253C33.9774 60.9071 33.7838 61.0493 33.5456 61.1525C33.3126 61.2558 33.0297 61.3074 32.6969 61.3074H30.6057L30.6054 57.0996ZM23.6835 57.8218L25.1648 62.7001H22.21L23.6835 57.8218ZM66.9136 57.8218L68.3946 62.7001H65.4398L66.9136 57.8218ZM2.79868 58.5439C2.45616 58.5439 2.16079 58.6299 1.91284 58.802C1.66961 58.9739 1.46632 59.2073 1.30268 59.502L1.28022 58.6914H0V66.6649H1.31738V60.9609C1.44163 60.6218 1.61775 60.354 1.846 60.1577C2.07897 59.9611 2.37434 59.8628 2.73156 59.8628C2.84582 59.8628 2.94761 59.8677 3.03664 59.8776C3.12622 59.8826 3.22301 59.8946 3.32702 59.9144L3.3198 58.6469C3.28868 58.6334 3.25611 58.6235 3.22273 58.6172C3.17926 58.6014 3.13455 58.5891 3.08905 58.5805C3.03735 58.5704 2.98513 58.563 2.93263 58.5585C2.88858 58.5492 2.84371 58.5443 2.79868 58.5437V58.5439ZM7.2273 58.5439C6.84512 58.5439 6.4757 58.6104 6.1182 58.743C5.76098 58.8756 5.44343 59.0942 5.16553 59.3987C4.89262 59.6986 4.67186 60.0915 4.50323 60.5778C4.33433 61.0595 4.25002 61.6515 4.25002 62.3539V63.2529C4.25002 63.8622 4.32213 64.3902 4.46607 64.8373C4.60973 65.2843 4.81552 65.6555 5.08371 65.9502C5.35749 66.2406 5.69676 66.4629 6.07383 66.5988C6.46072 66.7413 6.89477 66.8124 7.37623 66.8124C7.72347 66.8124 8.03354 66.7781 8.30672 66.7091C8.58462 66.6405 8.83007 66.5521 9.04363 66.4439C9.2433 66.3405 9.42847 66.2117 9.59443 66.0608C9.74057 65.927 9.8727 65.7789 9.98881 65.6187L9.30405 64.7933C9.19478 64.926 9.07829 65.0487 8.95432 65.1616C8.83007 65.2697 8.69362 65.3656 8.54496 65.4491C8.38939 65.5302 8.22433 65.5921 8.05351 65.6333C7.8561 65.6797 7.65371 65.702 7.45084 65.6998C6.84041 65.6998 6.37142 65.5056 6.04387 65.1176C5.72132 64.7294 5.56019 64.108 5.56019 63.2532V63.0686H10.0559V62.3097C10.0559 61.7006 10.0038 61.1624 9.89951 60.6959C9.79523 60.2291 9.6291 59.8362 9.40084 59.5168C9.1787 59.2025 8.87534 58.9531 8.5225 58.7946C8.16528 58.6274 7.73345 58.5439 7.2273 58.5439ZM7.2273 59.6643C7.51518 59.6643 7.75342 59.7156 7.94202 59.8189C8.12857 59.9201 8.28313 60.0706 8.38854 60.2535C8.50253 60.4403 8.58462 60.6638 8.63427 60.9244C8.68862 61.1797 8.72357 61.4623 8.73827 61.7717V61.9486H5.5674C5.58737 61.5015 5.642 61.1306 5.73103 60.8357C5.82061 60.541 5.9371 60.3076 6.08104 60.1357C6.22997 59.9589 6.40109 59.8362 6.59468 59.7672C6.79793 59.6968 7.01198 59.6619 7.2273 59.664V59.6643Z" fill="#A6A6A6"/>
</g>
<defs>
<clipPath id="clip0_899_6630">
<rect width="71" height="67" fill="white"/>
</clipPath>
</defs>
</svg>
