
<svg width="18" height="18" viewBox="0 0 18 18" fill="none" xmlns="http://www.w3.org/2000/svg">
<g clip-path="url(#clip0_998_7209)">
<path d="M0.955067 17.8017L3.3807 16.8926L5.05025 16.2675C5.48125 16.1263 5.87253 15.8865 6.1932 15.5658L7.6377 14.1213L3.8926 10.3762L2.4481 11.8207C2.12743 12.1414 1.88766 12.5327 1.74645 12.9637L1.12129 14.6332L0.212225 17.0588C0.0636568 17.5163 0.497594 17.9503 0.955067 17.8017Z" fill="url(#paint0_linear_998_7209)"/>
<path d="M0.208747 17.0587L0.961885 15.0493C1.38994 15.2655 1.77975 15.548 2.11954 15.8892C2.45934 16.229 2.74176 16.6174 2.96094 17.0484L0.951588 17.8015C0.494116 17.9501 0.0601785 17.5161 0.208747 17.0587Z" fill="url(#paint1_linear_998_7209)"/>
<path d="M14.5768 7.1812L10.8317 3.43611L12.0806 2.18872L15.8242 5.93235L14.5768 7.1812Z" fill="url(#paint2_linear_998_7209)"/>
<path d="M11.6641 2.60498L15.4085 6.34943L14.9925 6.76548L11.248 3.02103L11.6641 2.60498Z" fill="#9E9E9E"/>
<path d="M15.8237 5.93242L12.08 2.18879L13.7437 0.523651C14.2026 0.0647075 14.9484 0.0647075 15.4074 0.523651L17.4888 2.60508C17.9477 3.06402 17.9477 3.8098 17.4888 4.26875L15.8237 5.93242Z" fill="url(#paint3_linear_998_7209)"/>
<path d="M15.8237 5.93242L12.08 2.18879L13.7437 0.523651C14.2026 0.0647075 14.9484 0.0647075 15.4074 0.523651L17.4888 2.60508C17.9477 3.06402 17.9477 3.8098 17.4888 4.26875L15.8237 5.93242Z" fill="url(#paint4_linear_998_7209)"/>
<path d="M11.9394 4.54541L13.4648 6.07081L5.76136 13.7743L5.46128 13.7875C4.81405 13.8155 4.19477 13.1962 4.22272 12.549L4.23596 12.2489L11.9394 4.54541Z" fill="url(#paint5_linear_998_7209)"/>
<path d="M10.8323 3.43628L2.78607 11.4825C2.97583 11.9341 3.44801 12.2842 3.93784 12.2621L4.23792 12.2489L11.9414 4.54539L10.8323 3.43628Z" fill="url(#paint6_linear_998_7209)"/>
<path d="M13.4661 6.07202L5.7626 13.7755L5.74936 14.0756C5.72877 14.5654 6.07739 15.0391 6.52898 15.2274L14.5752 7.18113L13.4661 6.07202Z" fill="url(#paint7_linear_998_7209)"/>
</g>
<defs>
<linearGradient id="paint0_linear_998_7209" x1="15.2132" y1="14.1038" x2="0.640279" y2="14.1038" gradientUnits="userSpaceOnUse">
<stop offset="0.006854" stop-color="#FFECB3"/>
<stop offset="1" stop-color="#FFE082"/>
</linearGradient>
<linearGradient id="paint1_linear_998_7209" x1="2.90706" y1="16.4403" x2="0.621311" y2="16.4403" gradientUnits="userSpaceOnUse">
<stop stop-color="#6D6C6B"/>
<stop offset="1" stop-color="#504F4F"/>
</linearGradient>
<linearGradient id="paint2_linear_998_7209" x1="16.62" y1="4.68496" x2="10.2929" y2="4.68496" gradientUnits="userSpaceOnUse">
<stop stop-color="#E0E0E0"/>
<stop offset="1" stop-color="#9E9E9E"/>
</linearGradient>
<linearGradient id="paint3_linear_998_7209" x1="18.6911" y1="3.05593" x2="12.6158" y2="3.05593" gradientUnits="userSpaceOnUse">
<stop stop-color="#E57373"/>
<stop offset="1" stop-color="#F44336"/>
</linearGradient>
<linearGradient id="paint4_linear_998_7209" x1="18.6911" y1="3.05593" x2="12.6158" y2="3.05593" gradientUnits="userSpaceOnUse">
<stop stop-color="#E57373"/>
<stop offset="1" stop-color="#F44336"/>
</linearGradient>
<linearGradient id="paint5_linear_998_7209" x1="16.0424" y1="9.16693" x2="5.03544" y2="9.16693" gradientUnits="userSpaceOnUse">
<stop stop-color="#FFC107"/>
<stop offset="1" stop-color="#FFA000"/>
</linearGradient>
<linearGradient id="paint6_linear_998_7209" x1="12.4778" y1="2.89984" x2="5.04096" y2="10.3367" gradientUnits="userSpaceOnUse">
<stop stop-color="#FFCA28"/>
<stop offset="1" stop-color="#FFB300"/>
</linearGradient>
<linearGradient id="paint7_linear_998_7209" x1="15.1116" y1="5.53558" x2="7.67475" y2="12.9725" gradientUnits="userSpaceOnUse">
<stop stop-color="#FFCA28"/>
<stop offset="1" stop-color="#FFB300"/>
</linearGradient>
<clipPath id="clip0_998_7209">
<rect width="18" height="18" fill="white"/>
</clipPath>
</defs>
</svg>
