<svg width="23" height="20" viewBox="0 0 23 20" fill="none" xmlns="http://www.w3.org/2000/svg">
<g clip-path="url(#clip0_998_7402)">
<path d="M10.1273 0.736221L0.163065 18.0689C-0.344828 18.9555 0.394971 19.9988 1.53533 19.9988H21.4639C22.6043 19.9988 23.346 18.9555 22.8362 18.0689L12.8719 0.736221C12.3065 -0.245407 10.6927 -0.245407 10.1273 0.736221Z" fill="url(#paint0_linear_998_7402)"/>
<g opacity="0.2">
<path d="M11.4996 0.49998C11.8695 0.49998 12.1915 0.67164 12.3563 0.959962L22.3206 18.2926C22.472 18.5559 22.4567 18.8526 22.2784 19.1026C22.1002 19.3542 21.8031 19.4976 21.4639 19.4976H1.53533C1.1961 19.4976 0.89903 19.3542 0.720789 19.1026C0.542547 18.8509 0.527214 18.5559 0.678624 18.2926L10.6429 0.959962C10.8077 0.67164 11.1297 0.49998 11.4996 0.49998ZM11.4996 0C10.9553 0 10.411 0.24499 10.1273 0.736637L0.163065 18.0693C-0.344828 18.9559 0.394971 19.9992 1.53533 19.9992H21.4639C22.6043 19.9992 23.346 18.9559 22.8362 18.0693L12.8719 0.736637C12.5882 0.24499 12.0439 0 11.4996 0Z" fill="#424242"/>
</g>
<g opacity="0.2">
<path d="M11.4999 4.99949C12.3873 4.99949 13.0888 5.60947 13.0293 6.32944L12.3739 14.3341C12.3432 14.7074 11.9618 14.9991 11.4999 14.9991C11.038 14.9991 10.6566 14.7074 10.626 14.3341L9.97049 6.32944C9.91108 5.60947 10.6125 4.99949 11.4999 4.99949ZM11.4999 4.49951C10.8981 4.49951 10.3231 4.71284 9.92258 5.08616C9.54501 5.43947 9.35719 5.89279 9.39552 6.36444L10.051 14.3691C10.1047 15.0024 10.741 15.4991 11.4999 15.4991C12.2589 15.4991 12.8952 15.0024 12.9469 14.3691L13.6024 6.36444C13.6407 5.89279 13.4548 5.43947 13.0753 5.08616C12.6767 4.71284 12.1017 4.49951 11.4999 4.49951Z" fill="#424242"/>
<path d="M11.4984 15.666C12.1327 15.666 12.6483 16.1143 12.6483 16.666C12.6483 17.2176 12.1327 17.6659 11.4984 17.6659C10.864 17.6659 10.3484 17.2176 10.3484 16.666C10.3484 16.1143 10.864 15.666 11.4984 15.666ZM11.4984 15.166C10.5477 15.166 9.77344 15.8393 9.77344 16.666C9.77344 17.4926 10.5477 18.1659 11.4984 18.1659C12.449 18.1659 13.2233 17.4926 13.2233 16.666C13.2233 15.8393 12.449 15.166 11.4984 15.166Z" fill="#424242"/>
</g>
<path d="M11.4988 5.00024C12.3861 5.00024 13.0876 5.61022 13.0282 6.33019L12.3727 14.3349C12.3421 14.7082 11.9607 14.9998 11.4988 14.9998C11.0369 14.9998 10.6555 14.7082 10.6248 14.3349L9.96933 6.33019C9.90992 5.61022 10.6114 5.00024 11.4988 5.00024Z" fill="url(#paint1_linear_998_7402)"/>
<path d="M11.4996 17.6662C12.1347 17.6662 12.6495 17.2185 12.6495 16.6662C12.6495 16.114 12.1347 15.6663 11.4996 15.6663C10.8645 15.6663 10.3496 16.114 10.3496 16.6662C10.3496 17.2185 10.8645 17.6662 11.4996 17.6662Z" fill="url(#paint2_linear_998_7402)"/>
</g>
<defs>
<linearGradient id="paint0_linear_998_7402" x1="11.4996" y1="5.49936" x2="11.4996" y2="21.1387" gradientUnits="userSpaceOnUse">
<stop stop-color="#F70000"/>
<stop offset="0.5" stop-color="#D67145"/>
<stop offset="1" stop-color="#FF0000"/>
</linearGradient>
<linearGradient id="paint1_linear_998_7402" x1="11.4988" y1="4.70859" x2="11.4988" y2="17.8231" gradientUnits="userSpaceOnUse">
<stop stop-color="#424242"/>
<stop offset="1" stop-color="#212121"/>
</linearGradient>
<linearGradient id="paint2_linear_998_7402" x1="11.4996" y1="4.70836" x2="11.4996" y2="17.8228" gradientUnits="userSpaceOnUse">
<stop stop-color="#424242"/>
<stop offset="1" stop-color="#212121"/>
</linearGradient>
<clipPath id="clip0_998_7402">
<rect width="23" height="20" fill="white"/>
</clipPath>
</defs>
</svg>
