<svg height="32" viewBox="0 0 32 32" width="32" xmlns="http://www.w3.org/2000/svg"><path d="m23 7h-2v-1.9951185c0-1.10726548-.8958578-2.0048815-1.9973917-2.0048815h-5.0052166c-1.103129 0-1.9973917.8938998-1.9973917 2.0048815v1.9951185h-2-4v1h2v18.9931517c0 1.6606364 1.33396149 3.0068483 3.0001262 3.0068483h10.9997476c1.6569239 0 3.0001262-1.3359915 3.0001262-3.0068483v-18.9931517h2v-1zm-14 1v19.0054385c0 1.1015659.89339733 1.9945615 1.9918842 1.9945615h11.0162316c1.1000873 0 1.9918842-.9023438 1.9918842-1.9945615v-19.0054385zm3 2v17h1v-17zm4 0v17h1v-17zm4 0v17h1v-17zm-5.9970707-6c-.5539025 0-1.0029293.44266033-1.0029293.99895656v2.00104344h7v-2.00104344c0-.55170847-.4378814-.99895656-1.0029293-.99895656z" fill="#157efb" fill-rule="evenodd"/></svg>